<svg width="300" height="300" viewBox="0 0 300 300" fill="none" xmlns="http://www.w3.org/2000/svg">
<path d="M22.5962 76.4434L150 2.88675L277.404 76.4434V223.557L150 297.113L22.5962 223.557V76.4434Z" stroke="black" stroke-width="5"/>
<path d="M44.2468 88.9434L150 27.8868L255.753 88.9434V211.057L150 272.113L44.2468 211.057V88.9434Z" stroke="black" stroke-width="5"/>
<line x1="150.5" x2="150.5" y2="30" stroke="black"/>
<line x1="150.5" y1="275" x2="150.5" y2="296" stroke="black"/>
<line x1="254.252" y1="210.568" x2="278.252" y2="224.568" stroke="black"/>
<line x1="253.776" y1="88.5528" x2="277.776" y2="76.5528" stroke="black"/>
<line x1="21.7226" y1="224.584" x2="42.7227" y2="210.584" stroke="black"/>
<line x1="22.2481" y1="76.5659" x2="43.2481" y2="88.5659" stroke="black"/>
<path d="M152.026 6.90271C152.026 11.7095 152.026 16.5164 152.026 21.3232C152.026 25.2643 151.461 27.0275 156 28.2496C157.027 28.526 156.02 21.5405 155.83 20.7271C155.053 17.4002 155.092 14.3077 155.092 10.8769C155.092 9.74139 155.092 6.33497 155.092 7.47045C155.092 9.99687 155.092 12.5233 155.092 15.0497C155.092 18.1249 155.092 21.2002 155.092 24.2754C155.092 25.6606 155.092 27.0552 155.092 24.4457C155.092 20.6892 155.092 16.9327 155.092 13.1762C155.092 8.61211 156.114 22.2661 156.114 26.8302C156.114 31.5992 156.114 17.2923 156.114 12.5233C156.114 9.72485 156.114 13.6611 156.114 14.34C156.114 16.857 156.114 19.374 156.114 21.8909C156.114 23.5374 156.114 25.1838 156.114 26.8302C156.114 28.6848 156.114 23.121 156.114 21.2664C156.114 17.1598 156.114 13.0532 156.114 8.94656C156.114 4.58446 156.114 17.6708 156.114 22.0329C156.114 23.6131 156.114 25.1932 156.114 26.7734C156.114 29.225 156.114 23.5277 156.114 23.1399C156.114 20.7933 156.114 18.4467 156.114 16.1C156.114 12.4055 156.114 14.6483 156.114 17.1503C156.114 19.6578 156.114 22.1653 156.114 24.6728C156.114 28.1052 156.599 19.4968 156.795 18.8252C157.379 16.8173 160.544 11.4989 159.066 12.9775C157.252 14.7915 158.173 21.6136 157.902 24.1051C157.871 24.393 157.646 27.833 157.646 26.4612C157.646 22.0661 157.528 17.6551 157.646 13.2613C157.665 12.5622 157.91 12.0545 158.668 12.0123C160.345 11.9192 160.549 14.9336 160.655 16.1C161.015 20.0579 160.946 31.9898 160.712 28.0225C160.529 24.9155 160.233 21.8273 160.201 18.7116C160.172 15.8404 159.913 15.7376 159.151 18.8819C158.463 21.7186 157.646 24.6305 157.646 27.5683C157.646 29.599 158.496 29.385 160.315 29.385C161.489 29.385 162.911 29.1848 164.062 29.4986C165.881 29.9948 162.199 28.9702 161.308 28.3915C157.355 25.8215 165.378 31.4235 166.134 31.8831C168.35 33.2297 170.696 34.3418 172.975 35.5733C174.598 36.4502 175.541 37.2605 173.202 35.9708C168.554 33.4076 165.005 29.4504 159.747 28.136C157.741 27.6345 157.9 28.0662 159.719 29.2431C163.152 31.4643 166.861 33.4431 170.534 35.2327C170.73 35.3279 174.574 38.1443 173.6 38.2417C170.103 38.5914 165.662 33.9512 163.381 31.7411C161.311 29.7362 161.527 28.9577 164.431 30.3502C167.268 31.7104 170.13 33.0362 172.919 34.4946C174.946 35.5552 175.462 35.8956 177.29 36.9927C177.733 37.2584 178.826 38.2172 178.653 37.7307C178.272 36.665 174.588 34.04 174.139 33.643C170.742 30.6376 167.286 27.6373 164.289 24.2186C162.405 22.0696 160.925 19.7669 159.634 17.2355C159.521 17.0143 158.641 15.6716 159.463 16.4407C160.807 17.6977 162.08 19.0287 163.409 20.3013C165.591 22.3904 167.806 24.4353 169.853 26.6599C170.013 26.8344 171.192 28.3067 169.938 26.7734C166.717 22.8368 164.678 18.2119 162.756 13.5452" stroke="black" stroke-width="3" stroke-linecap="round"/>
<path d="M162.245 24.7864C163.733 27.6321 165.223 30.7188 167.298 33.1889C170.291 36.7521 162.06 25.4472 158.867 22.0612C158.724 21.9096 158.385 21.4554 158.385 21.6638C158.385 21.9421 158.682 22.1374 158.867 22.3451C160.632 24.3241 162.767 26.0083 164.857 27.6251C170.521 32.0077 162.578 22.8277 161.848 21.7774C159.797 18.8282 159.428 18.1396 157.646 15.2484C157.325 14.7276 157.038 14.184 156.681 13.6872C156.547 13.5002 156.493 14.1505 156.568 14.3684C157.423 16.8765 161.356 23.4588 161.223 20.8122C161.096 18.2614 156.36 13.8685 157.249 11.5581C157.361 11.2676 157.878 11.6858 158.129 11.8704C159.457 12.8486 163.408 16.7565 164.119 17.4342C167.167 20.3433 170.351 23.0117 173.486 25.8083" stroke="black" stroke-width="3" stroke-linecap="round"/>
<path d="M154.371 24.8884C154.247 24.8884 154.167 24.8847 154.102 24.7538C153.463 23.4761 153.356 21.7443 153.126 20.3655C153.041 19.8575 152.893 18.9509 152.843 18.3733C152.803 17.9092 152.907 18.3503 152.937 18.4675C153.155 19.3115 153.331 20.165 153.59 20.9982C153.7 21.3499 153.644 20.2628 153.644 19.8944C153.644 17.9711 153.6 16.041 153.705 14.1196C153.783 12.6839 153.765 11.2507 153.765 9.81213C153.765 9.29758 153.746 8.77849 153.765 8.26411C153.779 7.88343 154.189 8.13839 154.425 8.25065C157.173 9.55869 159.694 11.3172 162.434 12.6591C164.099 13.4747 165.848 14.1815 167.435 15.1494C168.64 15.8845 165.085 13.5815 163.874 12.8543C163.809 12.8147 162.777 12.1664 163.43 12.9755C165.06 14.9941 167.373 16.5243 169.461 18.0031C170.197 18.5247 170.954 19.0169 171.695 19.5309C171.941 19.7012 172.422 19.757 172.422 20.0559C172.422 20.3353 171.932 19.7875 171.695 19.6386C170.468 18.8658 169.335 18.076 168.128 17.2695C167.921 17.1315 165.96 15.8177 165.503 15.5734C165.052 15.332 164.988 15.4528 165.301 15.8965C167.502 19.0171 171.1 21.0983 174.273 23.0712C175.078 23.5719 175.916 24.0227 176.689 24.5721C177.257 24.9755 176.887 24.8765 176.319 24.7067C174.753 24.2385 172.88 23.4881 171.439 22.8895C170.323 22.4256 169.214 21.9437 168.115 21.4424C166.765 20.8274 165.511 20.0046 164.13 19.4636C164.018 19.4199 163.768 19.3909 163.773 19.5108C163.787 19.8451 164.002 20.1436 164.171 20.4328C164.979 21.823 166.872 24.465 167.697 25.5749C169.195 27.5877 171.177 30.0798 172.799 32.0227C173.603 32.9854 176.252 35.6605 175.37 34.7688C174.454 33.8427 173.186 32.8452 172.22 32.0766C171.487 31.4932 170.744 30.9226 169.999 30.3536C169.496 29.9691 168.993 29.5847 168.478 29.2161C168.297 29.0864 167.825 28.6546 167.913 28.8594C168.012 29.0908 168.304 29.1782 168.518 29.3103C169.055 29.6411 169.599 29.9608 170.161 30.2459C172.106 31.2327 174.358 32.4117 176.534 32.8035C177.456 32.9694 176.94 32.3915 176.656 31.942C176.077 31.0276 174.752 29.305 174.179 28.5363C173.874 28.1272 172.561 26.4019 172.139 25.7163C171.704 25.0086 173.404 26.7969 173.997 27.3787C175.942 29.2866 177.939 31.5701 180.297 32.9919C180.732 33.2542 179.585 32.2642 179.193 31.942C177.095 30.219 174.995 28.4113 172.759 26.8672C172.677 26.8108 171.42 25.6185 171.339 26.6585C171.274 27.4837 171.919 29.3174 172.119 29.9026C172.504 31.0297 172.912 32.1048 173.472 33.1534C174.083 34.2983 174.105 33.6778 173.97 32.8304C173.632 30.7047 173.089 28.6217 172.92 26.4701C172.891 26.1004 172.912 26.417 172.92 26.4566C173.003 26.8704 173.112 25.6319 173.149 25.2115C173.222 24.3733 173.257 23.5318 173.337 22.6943C173.358 22.4752 173.369 23.1339 173.364 23.3539C173.342 24.4216 172.976 27.5329 173.411 26.5576C174.204 24.7802 174.583 22.7764 175.195 20.9309C175.34 20.4923 175.363 19.946 175.713 19.6454C175.747 19.6164 175.807 19.689 175.814 19.7329C175.878 20.1042 175.81 21.4505 175.801 21.6039C175.646 24.1328 175.312 26.649 174.953 29.1555C174.758 30.5145 174.88 29.608 174.751 30.542C174.71 30.8382 174.687 30.7929 174.845 30.3065C175.724 27.5967 176.73 24.8405 178.089 22.3308C178.217 22.0955 178.287 21.6063 178.547 21.6712C178.618 21.689 178.583 21.8137 178.587 21.8866C178.63 22.562 178.574 23.2619 178.493 23.926C178.11 27.0817 177.214 30.1209 176.467 33.2006C175.916 35.4726 176.365 33.6633 176.097 34.937C175.926 35.7491 176.518 33.3294 176.797 32.5477C177.684 30.0596 178.632 27.3517 180.054 25.1038C180.146 24.9584 180.401 24.667 180.391 25.1038C180.351 26.8867 179.524 28.9014 178.971 30.5286C177.869 33.7733 176.478 36.9469 175.633 40.2743C175.548 40.6062 175.34 41.5764 175.538 41.2973C176.619 39.7788 177.304 37.3603 178.022 35.711C178.946 33.5863 179.826 31.5722 180.781 29.4651C181.314 28.2897 181.856 26.8367 182.585 25.7297C182.654 25.6246 182.634 25.9842 182.605 26.1066C182.09 28.271 181.413 30.4002 180.835 32.5477C180.67 33.161 178.616 40.1806 180.822 35.1591C181.075 34.5824 182.792 30.4849 183.056 29.8555C183.163 29.6012 183.951 27.097 184.429 26.7191C184.648 26.5466 184.458 27.2825 184.396 27.5537C184.084 28.8983 183.66 30.0795 183.184 31.3968C182.466 33.3843 181.735 35.203 180.97 37.1715C180.681 37.9136 180.392 38.6554 180.108 39.3993C179.89 39.971 179.4 40.5152 179.476 41.1223C179.493 41.2637 179.602 40.8668 179.664 40.7387C179.871 40.3149 180.071 39.8878 180.283 39.4666C181.181 37.6847 181.934 36.2519 182.908 34.4861C183.588 33.2554 184.377 31.8847 185.116 30.6632C185.257 30.4294 185.402 30.1978 185.553 29.9699C185.929 29.4025 185.573 30.0493 185.486 30.1988C183.527 33.56 181.264 36.8263 178.776 39.8166C178.714 39.8909 177.289 41.7996 177.874 40.4493C178.931 38.0084 180.14 35.6154 181.414 33.2813C181.619 32.9058 182.013 32.1685 182.343 31.767C182.683 31.3528 182.319 32.8472 182.195 33.3688C181.557 36.0453 180.816 38.6957 180.149 41.3646C180.132 41.4323 180.124 41.6317 180.162 41.5733C180.902 40.4372 181.48 39.1022 182.06 37.8917C183.317 35.2716 184.413 32.5712 185.722 29.9767C186.099 29.2284 187.237 27.0104 187.007 27.8162C185.726 32.2989 183.23 36.3734 181.986 40.8733C180.669 45.6401 185.775 31.6518 188.602 27.5941C188.694 27.4621 189.003 27.1918 189.019 27.3518C189.055 27.6963 188.586 28.9399 188.575 28.9671C187.292 32.316 185.406 35.4012 184.2 38.7801C183.72 40.1272 183.327 41.5403 183.056 42.9463C183.024 43.114 183.006 43.6178 182.969 43.4511C182.825 42.8041 183.221 41.035 183.285 40.6108C183.939 36.3141 184.689 32.0458 184.874 27.695C184.904 26.9718 184.9 26.9162 184.9 26.3557C184.9 26.1286 185.042 26.787 185.116 27.0018C185.568 28.3218 186.162 29.6513 187.027 30.7574C187.978 31.9724 187.784 28.6089 187.788 28.469C187.828 26.8834 187.929 22.1307 187.788 23.7106C187.37 28.3793 186.514 32.7389 184.9 37.1648C184.437 38.4367 183.33 41.1125 182.733 42.455C182.424 43.1499 182.282 44.0014 181.697 44.4876C181.396 44.7375 181.516 43.7208 181.508 43.3299C181.482 41.9304 181.527 40.5298 181.502 39.1301C181.496 38.8432 181.537 38.4506 181.394 38.8676C181.082 39.7744 180.824 40.7281 180.606 41.6608C180.547 41.9148 180.333 42.8745 180.404 43.2223C180.586 44.1072 181.906 44.4902 182.558 44.7366C184.717 45.5523 186.956 46.1921 189.168 46.85C189.268 46.8799 190.01 47.2279 189.592 46.8029C188.071 45.2595 186.768 43.9359 185.883 41.8627C185.262 40.408 184.753 38.375 184.941 36.7341C184.968 36.4941 185.134 36.0515 185.358 36.1418C185.689 36.2753 185.74 36.7555 185.843 37.0975C186.176 38.2046 186.301 39.7262 186.475 40.8666C186.52 41.1613 186.646 43.2234 187.33 41.9569C188.551 39.6971 188.968 36.8637 189.477 34.3784C189.581 33.8696 189.952 32.3798 189.706 32.8371C188.778 34.561 188.249 36.7562 187.539 38.5648C187.109 39.6593 186.182 41.9573 185.681 43.1549C185.056 44.6501 185.293 43.8625 185.58 42.8655C186.7 38.9706 187.838 35.0699 189.046 31.2016C189.107 31.0077 189.338 30.4743 189.356 30.6766C189.392 31.0817 189.258 32.876 189.248 32.9919C189.12 34.5916 189.006 35.5232 188.831 37.1244C188.775 37.6382 188.708 38.1509 188.663 38.6657C188.629 39.052 188.502 39.9226 188.844 39.0359C189.837 36.4672 190.438 33.7424 191.274 31.1208C191.373 30.8107 191.715 29.9502 191.759 30.2728C192.057 32.4477 191.719 34.9729 191.537 37.1244C191.524 37.2793 190.473 44.689 190.675 44.7433C190.75 44.7634 192.753 35.3749 192.937 34.614C193.092 33.9692 193.489 32.0393 193.489 32.7025C193.489 34.617 192.677 37.0109 192.25 38.8205C191.895 40.3249 191.32 42.5647 190.877 44.1107C190.567 45.1948 190.439 46.0016 190.312 44.5616C190.106 42.2308 189.842 39.903 189.544 37.5821C189.475 37.0358 189.469 36.9443 189.444 37.5821C189.368 39.4649 189.395 41.3522 189.41 43.2357C189.418 44.2453 189.53 45.2606 189.423 46.2644C189.396 46.5208 189.099 45.8501 189.019 45.6048C188.903 45.2454 188.795 44.8827 188.71 44.5145C188.664 44.316 188.429 43.9474 188.629 43.9088C189.01 43.8352 191.173 47.5422 191.288 47.7048C191.62 48.1747 191.949 48.6491 192.317 49.0912C192.436 49.2331 192.674 49.6198 192.741 49.448C192.844 49.1878 192.601 48.9046 192.492 48.647C192.23 48.0257 191.933 47.4196 191.631 46.8163C191.016 45.5857 190.353 44.308 189.558 43.1751C189.372 42.9108 189.198 42.614 188.925 42.4415C188.457 42.1461 189.267 43.5052 189.558 43.9761C189.89 44.5146 194.271 50.9377 195.016 49.2999C195.441 48.3661 195.382 45.6325 195.387 45.0529C195.414 41.868 195.312 38.6754 195.131 35.4957C195.109 35.1117 195.013 33.9681 194.983 34.3515C194.877 35.6864 194.858 37.0269 194.767 38.3628C194.62 40.5362 194.483 42.0747 194.296 44.2184C194.25 44.7479 194.202 45.2773 194.155 45.8068C194.09 46.5415 194.108 46.536 194.108 45.726C194.108 42.262 194.108 38.7981 194.108 35.3341C194.108 34.9258 194.11 33.7012 194.128 34.1092C194.245 36.7991 194.333 39.4875 194.552 42.1723C194.615 42.9477 194.863 45.6333 195.09 46.6548C195.12 46.7863 195.226 47.122 195.292 47.0048C195.453 46.7203 195.422 46.3619 195.44 46.0356C195.706 41.2974 195.117 36.5658 194.592 31.8679C194.557 31.552 194.541 31.234 194.498 30.9189C194.489 30.8522 194.49 31.0535 194.491 31.1208C194.535 33.7114 194.671 36.3054 194.875 38.8878C195.013 40.633 195.226 42.7044 195.467 44.4741C195.536 44.9805 196.038 46.7759 195.622 44.6491C194.794 40.4139 193.209 36.3328 192.109 32.1641C191.808 31.0244 191.65 29.8462 191.288 28.7248C190.778 27.1484 191.495 32.0341 191.698 33.6784C192.408 39.4162 193.209 45.2865 194.767 50.8681C194.871 51.2405 194.909 51.6878 195.198 51.945C195.327 52.0602 195.468 51.6962 195.508 51.5277C196.141 48.8438 196.015 45.7923 195.992 43.0675C195.982 41.8545 195.918 39.9167 195.831 38.5715C195.802 38.1308 195.886 39.4541 195.952 39.8907C196.161 41.272 196.501 43.0664 196.894 44.4337C197.643 47.0351 195.758 39.1386 195.077 36.5187C194.861 35.6863 194.693 34.8351 194.377 34.0351C194.335 33.9287 194.21 34.2237 194.215 34.338C194.374 37.9072 195.184 41.5551 196.066 44.9991C196.519 46.7647 197.084 48.6722 197.783 50.3835C198.69 52.6067 198.551 49.6523 198.55 49.0105C198.544 44.6296 198.212 40.2093 197.594 35.8726C197.558 35.6195 197.555 35.3532 197.453 35.1187C197.394 34.9829 197.445 35.4156 197.46 35.563C197.706 38.1063 198.169 40.6264 198.711 43.1213C198.779 43.432 199.382 46.1381 199.687 46.9308C200.262 48.4216 198.849 43.8381 198.24 42.3608C197.394 40.3072 196.762 39.1034 195.817 37.1514C195.233 35.9435 194.811 35.2665 195.885 36.6466C197.515 38.7433 199.281 41.0778 201.491 42.6031C202.063 42.9981 202.493 43.2046 202.205 42.2463C201.352 39.416 199.5 36.7156 198.119 34.1361C197.684 33.3235 196.543 31.2057 196.033 30.1517C195.307 28.6525 197.694 33.039 198.53 34.4794C200.391 37.6862 202.299 40.8576 204.405 43.9088" stroke="black" stroke-width="3" stroke-linecap="round"/>
<path d="M174.724 23.7981C174.366 22.6804 173.804 21.6079 173.378 20.5136C173.22 20.1087 173.058 19.7054 172.913 19.2954C172.683 18.6389 173.841 20.3326 174.307 20.8501C177.158 24.0224 180.024 26.9126 183.851 28.8729C185.522 29.7293 187.277 30.3481 188.966 31.1478C190.318 31.7881 191.485 32.8565 192.641 33.7861C193.988 34.8703 195.34 35.9123 196.773 36.8822C198.217 37.8598 199.621 38.8963 201.067 39.8705C202.925 41.1217 204.891 42.1896 206.788 43.3771C207.861 44.0485 209.076 44.6362 210.046 45.4568C210.918 46.1947 208.844 45.9452 208.652 45.9414C205.458 45.8778 202.292 45.5287 199.115 45.228C198.361 45.1566 197.261 44.9666 197.325 46.0693C197.4 47.3637 198.78 48.2685 199.681 48.997C200.921 50.0007 202.139 51.0043 203.281 52.12C204.693 53.498 206.045 54.7807 207.676 55.9025" stroke="black" stroke-width="10" stroke-linecap="round"/>
<path d="M210.628 48.9908C211.423 52.4697 213.739 56.5778 216.343 59.041C219.619 62.14 223.623 63.9339 227.623 65.8131C231.5 67.6352 235.182 70.085 238.902 72.2185C242.684 74.3872 246.408 76.7032 250.128 78.9798C251.298 79.6958 252.488 80.3912 253.697 81.0394C253.786 81.0873 254.929 81.7249 254.355 81.1688C251.498 78.4011 248.312 76.2072 244.941 74.0948C238.742 70.2102 231.429 66.8379 226.674 61.0899C224.434 58.3827 222.735 55.0837 219.934 52.9052C217.826 51.266 215.687 49.8237 214.122 47.6321" stroke="black" stroke-width="10" stroke-linecap="round"/>
<path d="M213.928 46.0793C214.071 45.9359 216.55 48.0243 216.882 48.2575C219.166 49.8607 222.14 50.575 224.646 51.7945C229.21 54.0149 233.645 56.9634 237.587 60.1518C242.282 63.9497 247.491 67.4034 252.824 70.2343C255.811 71.8203 258.922 73.4213 261.677 75.3889" stroke="black" stroke-width="10" stroke-linecap="round"/>
<path d="M258.674 78.9763C258.674 79.5295 258.674 80.0826 258.674 80.6358C258.674 81.0819 259.024 81.2537 259.316 81.5459" stroke="black" stroke-width="10"/>
<path d="M255.542 84.8383C255.913 83.8066 257.095 83.3923 257.947 82.8352C258.624 82.3922 259.229 81.8632 259.896 81.4032C261.908 80.0173 264.094 78.8591 266.396 78.0394C267.44 77.6678 268.517 77.3724 269.6 77.1382C270.359 76.974 269.074 77.4826 268.966 77.5442C267.107 78.6087 265.423 79.9488 263.608 81.082C262.311 81.8919 260.9 82.489 259.553 83.2011C258.784 83.6076 257.92 83.8679 257.211 84.3744C256.881 84.6102 256.569 84.8713 256.238 85.106C256.164 85.1586 255.723 85.3698 256.069 85.2845C256.912 85.0763 257.541 84.465 258.348 84.1959C258.986 83.9835 259.66 83.6722 260.253 83.3572C261.105 82.9052 261.94 82.4367 262.814 82.0278C263.663 81.6305 264.304 80.985 265.094 80.5109C266.451 79.6969 267.856 79.1036 269.278 78.4142C270.676 77.7367 274.955 75.9251 273.61 76.701C272.612 77.2768 271.523 77.8172 270.474 78.2982C270.024 78.5043 269.571 78.6775 269.096 78.8157C268.295 79.0481 267.637 79.5175 266.829 79.7436C266.301 79.8914 265.702 80.123 265.196 80.3414C264.909 80.4658 264.627 80.5987 264.331 80.7028C264.059 80.7983 263.222 80.9749 263.51 80.9749C264.494 80.9749 265.28 80.4416 266.098 80.0024C266.228 79.9325 266.712 79.7047 266.338 79.9934C265.989 80.2637 265.571 80.5458 265.134 80.6448C265.089 80.6549 264.83 80.749 265.045 80.7295C265.404 80.6969 265.732 80.4792 266.031 80.2968C266.785 79.8371 267.418 79.4143 268.248 79.0744C269.418 78.5953 270.438 78.067 271.518 77.4148C272.469 76.8403 273.519 76.3769 274.632 76.246C277.085 75.9574 269.692 76.2707 267.222 76.246C266.494 76.2387 265.291 76.3624 264.84 75.6125C264.696 75.3741 264.061 73.5398 264.518 73.5157C265.651 73.4561 267.053 74.0752 268.069 74.5061C268.28 74.5955 269.723 75.3302 268.623 74.8452C267.996 74.5692 267.375 74.2813 266.744 74.0154C266.634 73.9687 266.524 73.9203 266.41 73.8815C266.376 73.8698 266.442 73.9506 266.472 73.9708C266.8 74.1894 267.153 74.3662 267.427 74.64" stroke="black" stroke-width="3" stroke-linecap="round"/>
<path d="M267.909 74.2385C268.321 74.4859 268.672 74.8086 269.033 75.1218" stroke="black" stroke-width="3" stroke-linecap="round"/>
<line x1="256.767" y1="87.5575" x2="275.767" y2="77.5575" stroke="black"/>
<path d="M151.076 272.486C150.844 274.843 151.948 277.312 152.33 279.632C152.876 282.941 153.495 285.981 153.495 289.356C153.495 290.758 153.744 292.057 152.588 292.974C152.256 293.237 152.01 293.494 151.893 293.904C151.7 294.579 151.873 292.5 151.882 291.798C151.908 289.742 152.655 288.027 153.002 286.04C153.282 284.441 153.217 282.606 153.282 280.977C153.297 280.61 153.333 277.602 153.193 278.837C152.997 280.559 152.908 282.401 152.89 284.136C152.882 284.959 152.864 287.413 152.733 286.6C152.571 285.587 152.689 284.485 152.689 283.463C152.689 282.162 152.689 283.318 152.689 283.799C152.689 284.86 152.689 285.92 152.689 286.981C152.689 287.182 152.689 288.151 152.689 287.384C152.689 285.151 152.689 282.918 152.689 280.685C152.689 278.579 152.689 284.897 152.689 287.003" stroke="black" stroke-width="3" stroke-linecap="round"/>
<path d="M151.671 282.67C151.763 283.161 151.745 283.649 151.761 284.146C151.79 285.004 151.851 285.86 151.874 286.719C151.882 287.032 151.88 287.968 151.921 287.658C152.042 286.753 152.151 285.862 152.157 284.948C152.17 283.179 152.157 281.409 152.157 279.64C152.157 279.009 152.017 280.894 151.955 281.522C151.807 283.02 151.639 284.528 151.541 286.03C151.481 286.933 151.509 287.843 151.509 288.747C151.509 289.062 151.493 289.382 151.509 289.697C151.513 289.769 151.551 289.557 151.563 289.485C151.675 288.814 151.681 288.739 151.833 287.995C152.286 285.782 152.826 283.59 153.017 281.333C153.167 279.566 153.089 277.774 153.089 276.003C153.089 275.329 153.018 274.605 153.098 273.932C153.116 273.784 153.14 273.356 153.184 273.927C153.249 274.783 153.342 277.159 153.364 277.65C153.399 278.424 153.502 281.418 153.659 282.44C153.685 282.613 153.768 283.065 153.868 282.922C154.078 282.62 154.037 282.205 154.077 281.839C154.147 281.197 154.183 280.551 154.196 279.906C154.224 278.547 154.151 277.324 154.039 275.98C153.998 275.494 153.999 274.998 153.877 274.526C153.852 274.431 153.885 274.723 153.893 274.821C153.969 275.851 154.059 276.832 154.165 277.871C154.443 280.595 154.816 283.304 155.173 286.019C155.207 286.271 155.253 287.242 155.421 286.321C155.724 284.659 155.745 282.955 155.723 281.272C155.71 280.373 155.578 277.684 155.538 278.582C155.493 279.605 155.517 280.629 155.52 281.652C155.524 283.224 155.538 285.147 155.583 286.717C155.603 287.395 155.631 288.074 155.669 288.751C155.693 289.19 155.708 289.631 155.768 290.066C155.782 290.171 155.822 290.443 155.889 290.361C156.032 290.188 156.023 289.931 156.06 289.71C156.23 288.701 156.384 287.035 156.438 286.064C156.474 285.439 156.487 284.813 156.49 284.187C156.493 283.748 156.479 283.31 156.456 282.872C156.45 282.756 156.436 282.417 156.402 282.528C156.342 282.729 156.376 282.946 156.371 283.156C156.358 283.674 156.356 284.193 156.348 284.711C156.339 285.364 156.305 287.44 156.308 288.168C156.313 289.519 156.447 289.356 156.461 288.166C156.488 285.808 156.234 283.479 155.84 281.157C155.562 279.522 155.181 277.906 154.849 276.282C154.762 275.857 154.715 275.614 154.737 275.192C154.77 274.538 154.801 273.885 154.804 273.23C154.809 272.159 154.757 273.751 154.755 273.761C154.635 274.413 154.349 273.662 154.305 273.783C154.239 273.961 154.278 274.164 154.3 274.353C154.353 274.809 154.433 275.262 154.53 275.71C154.715 276.568 155.145 278.188 155.466 279.037C155.571 279.313 155.663 279.613 155.864 279.829C155.929 279.899 156.102 279.848 156.141 279.762C156.274 279.467 156.282 279.13 156.324 278.809C156.512 277.343 156.518 275.853 156.533 274.378C156.535 274.162 156.533 273.945 156.533 273.729C156.533 273.416 156.538 274.355 156.544 274.668C156.564 275.689 156.585 276.74 156.659 277.758C156.696 278.265 156.806 279.763 156.902 279.264C156.954 278.995 156.927 278.715 156.902 278.443C156.779 277.125 156.534 275.92 156.2 274.634C156.011 273.908 155.454 272.097 155.133 271.298C154.982 270.925 154.796 270.467 154.75 271.141C154.639 272.764 154.774 274.465 154.869 276.084C154.929 277.102 154.985 277.819 155.119 278.789C155.152 279.024 155.085 279.375 155.299 279.478C155.34 279.498 155.399 279.471 155.43 279.437C155.672 279.182 156.057 278.422 156.155 278.222C156.35 277.823 156.528 277.417 156.704 277.009C156.874 276.615 157.022 276.212 157.19 275.818C157.282 275.603 157.345 275.369 157.485 275.181C157.515 275.142 157.608 275.198 157.618 275.246C157.693 275.607 157.689 275.979 157.728 276.345C157.803 277.059 157.88 277.774 157.96 278.488C158.361 282.083 158.76 285.671 159.036 289.278C159.104 290.165 158.97 287.499 158.885 286.613C158.731 285.017 158.595 284.001 158.291 282.451C158.204 282.008 158.103 281.567 157.987 281.13C157.94 280.954 157.903 280.768 157.802 280.617C157.776 280.577 157.727 280.691 157.726 280.738C157.708 281.294 157.887 282.721 157.942 283.102C158.082 284.08 158.331 285.478 158.572 286.46C161.55 298.608 157.895 283.966 158.964 287.41" stroke="black" stroke-width="3" stroke-linecap="round"/>
<path d="M256.31 212.887C256.669 213.246 257.161 213.41 257.607 213.635C257.904 213.785 258.183 213.976 258.444 214.182C258.879 214.527 259.189 214.977 259.579 215.367C260.304 216.092 261.107 216.729 262.045 217.156C262.516 217.37 262.991 217.557 263.455 217.787C264.176 218.145 264.947 218.425 265.622 218.869C267.577 220.155 269.57 221.388 271.6 222.554C272.065 222.821 272.532 223.076 273.023 223.29C273.24 223.386 273.38 223.496 273.616 223.496C273.711 223.496 273.946 223.456 274.03 223.504C274.137 223.565 273.793 223.566 273.672 223.584C273.196 223.654 272.644 223.714 272.172 223.744C271.313 223.8 270.424 223.839 269.569 223.714C268.246 223.52 266.954 222.876 265.752 222.331C264.066 221.567 262.415 220.733 260.838 219.762C259.818 219.134 258.875 218.408 257.897 217.721C257.346 217.334 256.756 216.988 256.268 216.519C255.805 216.074 255.52 215.53 255.234 214.966C255.131 214.763 255.036 214.523 254.883 214.348C254.868 214.331 254.835 214.284 254.829 214.306C254.801 214.428 254.984 214.505 255.074 214.592C256.232 215.716 257.583 216.702 258.927 217.595C259.991 218.302 261.151 218.827 262.242 219.487C263.465 220.227 264.6 221.098 265.839 221.814C266.688 222.304 267.641 222.693 268.415 223.306C268.53 223.397 268.589 223.494 268.519 223.641C268.261 224.19 267.469 224.337 266.944 224.341C265.417 224.354 263.834 223.89 262.429 223.336C260.96 222.757 259.639 221.945 258.372 221.017C257.47 220.356 256.601 219.648 255.795 218.873C255.135 218.239 254.583 217.648 254.005 216.942C253.73 216.606 253.509 216.227 253.231 215.893C252.955 215.562 253.691 216.627 253.979 216.948C254.699 217.751 255.529 218.461 256.352 219.155C257.427 220.062 258.53 220.943 259.682 221.753C261.301 222.891 263.02 223.845 264.75 224.797C265.566 225.246 266.374 225.709 267.194 226.152C267.558 226.348 267.926 226.545 268.317 226.684C268.409 226.716 268.571 226.843 268.601 226.751C268.654 226.594 267.959 226.017 267.907 225.969C267.591 225.677 267.255 225.408 266.921 225.137C266.563 224.846 267.306 225.095 267.369 225.106C267.875 225.196 268.38 225.291 268.884 225.392C268.973 225.41 269.242 225.454 269.151 225.454" stroke="black" stroke-width="3" stroke-linecap="round"/>
<path d="M202.059 261.276H201.748" stroke="black" stroke-width="10" stroke-linecap="round"/>
<path d="M157.677 273.691C160.62 272.738 163.806 272.255 166.609 270.932C170.316 269.181 173.692 266.759 177.402 264.966C191.033 258.381 203.478 249.963 216.525 242.344C227.743 235.793 239.285 229.943 251.147 224.671C251.717 224.418 253.46 223.863 253.354 223.016C253.238 222.084 252.562 221.187 252.078 220.412C251.253 219.092 249.493 221.155 248.682 221.723C242.143 226.295 234.791 228.916 227.819 232.723C224.287 234.651 220.502 236.094 217.094 238.241C213.864 240.275 210.583 242.407 207.525 244.689C204.224 247.151 201.119 249.914 197.852 252.431C192.988 256.176 187.505 258.692 182.11 261.552C177.228 264.14 172.217 266.858 168.161 270.673C165.825 272.869 164.568 276.296 163.574 279.277" stroke="black" stroke-width="10" stroke-linecap="round"/>
<path d="M159.85 286.415C159.789 286.496 161.325 285.442 161.367 285.415C163.256 284.209 165.204 283.085 167.126 281.932C171.56 279.272 176.263 277.228 180.92 275.001C187.793 271.714 194.462 267.498 200.748 263.207C204.09 260.927 207.135 258.325 210.335 255.862C216.225 251.327 222.865 247.678 229.163 243.758C234.074 240.702 238.945 237.451 244.164 234.93C246.9 233.608 249.723 232.593 252.371 231.085C254.141 230.078 256.163 229.027 258.096 228.361C259.421 227.904 260.255 226.654 261.51 226.171C262.093 225.947 264.882 227.137 262.579 227.137" stroke="black" stroke-width="10" stroke-linecap="round"/>
<path d="M192.438 259.414C190.263 260.441 188.3 261.876 186.127 262.931C180.086 265.866 173.679 267.863 167.54 270.552C167.431 270.6 164.001 272.139 163.574 272.794C162.869 273.876 166.161 272.461 167.367 272.001C178.468 267.764 188.672 261.72 198.921 255.793C214.751 246.639 231.216 238.73 247.233 229.93C251.555 227.555 255.632 225.245 259.475 222.171" stroke="black" stroke-width="10" stroke-linecap="round"/>
<path d="M24.8588 79.7871C25.0851 79.9631 25.3357 80.1074 25.5525 80.2971C25.9605 80.6541 26.3672 80.9877 26.8136 81.2981C27.415 81.7162 27.9699 82.1874 28.5965 82.5695C29.4529 83.0917 30.315 83.5915 31.229 84.0084C31.6143 84.1842 32.0046 84.3461 32.3754 84.5523C33.3027 85.0679 34.2005 85.6182 35.1651 86.0662C36.3167 86.601 37.5212 87.0104 38.678 87.5331C39.1502 87.7464 39.6518 87.9314 40.1008 88.1901C40.4649 88.3998 40.8171 88.6287 41.1826 88.8353" stroke="black" stroke-width="3" stroke-linecap="round"/>
<path d="M28.3247 81.8243C28.3444 82.1396 28.5325 82.2681 28.8141 82.3799C29.4312 82.6247 30.0539 82.8339 30.5823 83.2515C30.9816 83.5669 31.4218 83.8498 31.7949 84.1951C31.9795 84.3659 32.4103 84.7261 32.2829 85.0285C32.1905 85.2478 31.9372 85.364 31.7376 85.44C31.2427 85.6285 30.9037 85.6577 30.3545 85.6047C29.0242 85.4762 27.747 84.9143 26.5492 84.3612C26.5181 84.3468 23.3873 82.7224 23.4008 82.7032C23.4351 82.6547 23.5114 82.7467 23.5669 82.7679C23.678 82.8104 23.7886 82.8542 23.9005 82.8943C24.2639 83.0246 24.5823 83.1312 24.9559 83.2353C25.3493 83.345 25.4322 83.355 25.7966 83.4293C25.8667 83.4436 26.0137 83.4613 26.0847 83.5116C26.3659 83.7107 26.5885 84.1005 26.7931 84.3671C27.1335 84.8106 27.4553 85.2681 27.8896 85.6282C29.4776 86.9449 31.5891 87.4855 33.5337 88.0299C35.0519 88.4548 36.5633 88.8956 38.0755 89.3409C38.9407 89.5957 39.788 89.81 40.5962 90.2213C40.8494 90.3502 41.0813 90.5133 41.3326 90.6447C41.4945 90.7293 41.7427 90.7826 41.8808 90.9019C41.9392 90.9523 41.7272 90.9216 41.6501 90.921C41.0963 90.9165 40.8346 90.9166 40.2214 90.821C38.2418 90.5124 36.3834 89.7392 34.4582 89.216C32.2118 88.6055 29.9182 88.2107 27.6839 87.5478C26.9031 87.3161 26.1267 87.0748 25.3704 86.7717C25.018 86.6305 24.6082 86.5104 24.2944 86.2896C24.2401 86.2513 24.0195 86.0658 24.2092 86.0368C24.4969 85.9928 24.8104 86.0962 25.0264 86.2866C25.444 86.6548 25.7413 87.1822 26.0935 87.6095C26.3037 87.8645 26.5305 88.0994 26.7637 88.3326" stroke="black" stroke-width="3" stroke-linecap="round"/>
<path d="M23.901 221.308C24.3027 221.256 24.6792 221.091 24.9998 220.847C25.6157 220.377 26.1863 219.848 26.8029 219.378C28.0167 218.453 29.236 217.536 30.4403 216.596C31.6684 215.638 33.0688 214.972 34.421 214.212C35.0994 213.83 35.7601 213.425 36.4536 213.07C37.3015 212.637 38.1658 212.256 38.9945 211.782C39.6171 211.426 40.2658 211.119 40.8399 210.686C41.0204 210.549 41.3397 210.359 41.4373 210.142C41.5366 209.92 40.5626 210.124 40.5235 210.133C39.5236 210.346 38.6214 210.855 37.6951 211.265C36.7349 211.69 35.8041 212.132 34.8957 212.663C33.9911 213.191 33.1163 213.774 32.1765 214.241C30.7679 214.94 29.2138 215.217 27.788 215.861C26.8121 216.302 25.9927 217.037 25.1981 217.738C24.6313 218.238 24.0763 218.756 23.5265 219.275C23.4016 219.393 23.8397 219.133 23.9879 219.046C25.3275 218.262 26.6802 217.498 28.0109 216.699C31.074 214.859 33.8601 212.57 37.071 210.978C37.7538 210.639 38.4533 210.336 39.155 210.039C39.9206 209.715 40.7387 209.434 41.4373 208.974C41.505 208.929 42.0566 208.562 41.6379 208.508C41.3419 208.47 40.7968 208.566 40.5591 208.606C39.8598 208.724 39.3787 208.834 38.6847 209.03C37.5626 209.345 36.4674 209.749 35.366 210.128C34.2744 210.504 33.1724 210.856 32.0941 211.269C31.0972 211.652 30.1841 212.12 29.3081 212.732C28.6001 213.226 27.9385 213.716 27.1372 214.056C26.5149 214.32 25.8145 214.584 25.1469 214.722C25.0987 214.732 25.0769 214.717 25.1446 214.684C26.4407 214.045 27.8754 213.623 29.2145 213.088C30.7793 212.463 32.3535 211.829 33.8571 211.064C35.1201 210.422 36.2379 209.613 37.3831 208.789C38.4358 208.031 39.5758 207.436 40.7218 206.836C40.9378 206.723 41.1618 206.643 41.3838 206.544C42.0293 206.259 40.0187 206.915 39.36 207.168C37.5189 207.878 35.7287 208.708 33.9306 209.518C32.6473 210.096 31.3304 210.804 29.9143 210.991C28.7181 211.149 27.4856 211.078 26.2813 211.078C26.0879 211.078 25.8114 211.031 25.6216 211.096C25.5109 211.133 25.4369 211.345 25.3898 211.43C25.3314 211.535 25.1468 211.764 25.1692 211.898C25.2197 212.202 26.6729 211.864 26.6914 211.86C28.2824 211.52 29.7637 210.834 31.2471 210.189C33.153 209.359 35.0678 208.555 37.0042 207.799C38.4791 207.224 39.9651 206.679 41.464 206.17C41.7938 206.058 42.1641 205.944 42.0747 205.541" stroke="black" stroke-width="3" stroke-linecap="round"/>
<path d="M26.5517 90.9952C25.5473 93.2551 26.2397 96.9008 26.2397 99.3139C26.2397 106.297 25.9046 113.244 26.1011 120.232C26.2887 126.907 26.6466 133.577 26.9329 140.249C27.1345 144.944 28.1116 149.539 28.354 154.217C28.9066 164.881 28.4234 175.686 28.4234 186.365C28.4234 194.297 28.4234 202.228 28.4234 210.16" stroke="black" stroke-width="10" stroke-linecap="round"/>
<path d="M34.3503 208.912C34.3503 201.716 35.9451 194.848 36.7073 187.734C37.2838 182.353 36.8459 176.742 36.8459 171.339C36.8459 164.979 36.8459 158.619 36.8459 152.259C36.8459 138.544 36.8459 124.83 36.8459 111.116C36.8459 104.834 34.9742 98.8118 34.9742 92.555" stroke="black" stroke-width="10" stroke-linecap="round"/>
<path d="M33.4145 91.3072C32.4421 95.9531 32.5859 100.869 32.4787 105.588C32.3316 112.058 32.1936 118.517 31.2309 124.928C30.3589 130.736 29.6832 136.31 29.5152 142.19C29.3877 146.649 29.3895 151.119 29.0472 155.569" stroke="black" stroke-width="10" stroke-linecap="round"/>
<path d="M38.0938 204.233C40.9783 202.901 39.9654 197 39.9654 194.458C39.9654 184.979 38.978 175.607 38.0938 166.175" stroke="black" stroke-width="10" stroke-linecap="round"/>
<path d="M38.0937 95.0506C38.0937 100.69 38.3616 106.322 37.4698 111.896" stroke="black" stroke-width="10" stroke-linecap="round"/>
</svg>
